<svg width="510" height="200" viewBox="0 0 510 200" fill="none" xmlns="http://www.w3.org/2000/svg">
<path d="M0 100.844C0 100.556 0 100.275 0 99.9875C0 90.2806 1.38764 80.8988 3.9628 72.0233C3.99405 72.517 4.03149 73.0171 4.05024 73.5296C4.21275 76.9048 4.99402 80.03 5.58156 83.3865C7.8567 95.531 12.1571 105.888 18.97 115.695C22.364 120.389 26.1392 124.22 30.5395 127.814C33.1709 129.802 36.446 131.964 39.7774 130.958C41.54 128.127 39.0712 125.077 38.9274 122.126C34.1647 110.951 30.8894 99.9125 29.2331 87.5242C27.5392 74.2984 29.0394 61.5476 32.8646 48.9031C37.1899 34.6272 44.6841 21.8139 54.5972 10.8632C59.5225 8.35052 64.6791 6.23164 70.0294 4.55653C68.3605 5.93162 66.7354 7.36921 65.1603 8.90056C50.8157 22.4764 40.4276 39.2462 36.7461 59.2787C33.5834 76.9673 35.5022 94.8309 43.8589 110.482C44.1027 111.107 44.1215 111.526 44.359 112.151C51.0719 124.289 60.8288 133.958 71.9982 142.084C75.2734 144.253 78.3424 146.634 79.9925 150.147C80.455 150.972 80.2926 152.034 79.9113 152.897C78.5487 155.285 75.836 156.054 73.3296 156.591C71.642 156.672 70.3981 157.154 68.7105 157.235C66.8041 157.116 64.6978 157.216 62.7914 157.097C55.1409 156.197 48.6968 153.972 41.9901 150.703C21.4388 140.265 7.68173 122.358 0 100.838V100.844ZM15.4072 82.3114C16.4322 83.6115 16.7073 85.3303 18.6262 85.2366C20.3451 84.9616 20.62 82.6364 20.745 81.2863C21.8701 64.679 24.3827 48.9656 31.3832 34.3896C33.4771 29.6769 35.9397 25.1891 38.7274 20.9513C26.8392 30.1769 17.0886 42.0276 10.3444 55.6285C10.3444 63.479 11.5258 71.4232 14.1009 79.2987C14.5384 80.43 14.7759 81.3863 15.4009 82.3176L15.4072 82.3114ZM174.542 56.2348C172.073 57.6224 172.88 61.1726 174.242 63.2227C183.205 78.2111 190.681 93.0621 192.793 110.707C193.987 120.97 193.4 131.152 191.268 140.928C196.881 128.433 200.006 114.576 200.006 99.9937C200.006 87.0179 197.531 74.6172 193.037 63.2415C189.693 60.66 186.118 58.4849 181.968 56.9411C179.599 55.9972 176.586 54.8784 174.542 56.241V56.2348ZM124.302 26.3329C114.751 29.7519 106.782 35.4147 101.069 43.9277C98.3186 48.2843 96.656 53.2221 98.5686 57.7786C99.775 60.8913 102.788 62.0101 105.975 62.4914C110.013 62.9289 113.582 62.5477 117.376 62.3664C118.02 62.5477 118.439 62.5289 119.082 62.7039C119.082 62.7039 119.501 62.6852 119.707 62.4602C120.126 62.4414 120.57 62.8414 120.995 62.8227C121.195 62.6039 121.414 62.8039 121.62 62.5789C122.039 62.5602 122.483 62.9602 122.908 62.9414C148.922 63.5915 169.711 82.8677 175.586 108.357C181.961 135.515 172.442 161.535 154.328 180.149C150.522 184.011 146.434 187.549 142.103 190.731C154.347 185.043 165.248 176.949 174.198 167.06C176.448 163.354 178.411 159.485 179.974 155.472C182.961 147.303 185.543 139.571 186.18 130.877C186.099 129.189 186.237 127.708 186.355 125.795C186.93 111.401 183.749 98.0374 176.817 85.6929C173.361 79.73 169.723 74.4171 164.848 69.5793C157.516 62.1164 149.003 56.3973 139.846 50.5032C137.659 48.9156 135.427 46.4904 135.927 43.7215C137.571 38.3587 143.871 37.6336 148.891 36.546C149.309 36.5273 149.534 36.7273 149.953 36.7085C155.391 35.6022 160.71 36.4023 166.054 37.6211C171.904 38.7337 177.217 40.5713 182.199 42.9777C177.305 35.9335 171.523 29.5456 165.023 23.9827C151.522 21.0263 137.515 21.5701 124.32 26.3204L124.302 26.3329ZM75.6485 182.886C81.7739 182.805 87.2492 182.536 93.3121 181.193C105.638 178.274 116.395 173.53 125.502 165.279C128.733 162.166 131.54 159.072 134.108 155.36C140.003 146.203 143.69 135.04 140.015 124.445C139.771 123.82 139.309 123.001 139.071 122.376C137.665 119.489 135.215 116.857 132.202 115.738C129.633 115.02 126.683 115.157 124.195 116.126C119.639 118.032 115.307 120.145 110.751 122.058C105.975 123.764 101.581 124.614 96.4997 124.433C94.5933 124.314 92.9058 124.395 90.9807 123.851C87.3492 122.97 84.1365 122.07 80.905 120.745C72.0482 116.732 65.1791 110.094 60.1412 101.888C53.7096 91.2119 51.4345 79.0674 52.5158 66.3416C52.8533 64.6353 52.9971 63.1477 53.1346 61.6664C54.1534 56.5473 55.1972 51.847 57.0786 47.1092C60.1038 39.7837 64.2165 33.0333 69.1918 26.6704C77.1735 16.9886 86.9492 9.33808 98.2874 3.51272C100.769 2.26264 103.263 1.15632 105.782 0.16251C103.875 0.0562535 101.95 0 100.013 0C95.2622 0 90.587 0.331271 86.0117 0.975061C69.2669 11.2257 55.5659 26.2454 48.528 44.9966C48.1467 45.8591 47.7468 46.3029 47.3655 47.1654C44.8028 55.316 42.8589 63.2289 42.6401 71.8982C42.8027 79.705 43.1527 86.8742 45.6216 94.3559C48.378 103.306 52.3345 110.932 58.3786 118.032C69.5668 131.014 84.8865 137.671 102.288 139.365C104.413 139.684 106.763 140.209 108.894 140.528C110.819 141.071 112.77 142.034 114.113 143.659C114.795 144.684 115.257 145.503 115.32 146.772C115.22 149.103 114.257 151.047 113.295 152.997C109.744 158.235 104.65 162.073 99.0687 164.667C75.486 175.098 48.3468 168.586 27.983 153.722C23.6077 150.553 19.6263 146.94 15.8511 143.109C11.5258 138.596 7.73801 133.952 4.2503 128.939C8.58182 143.29 16.0511 156.279 25.8579 167.11C29.5269 169.486 33.3709 171.642 37.3899 173.548C49.4969 179.305 62.1227 182.711 75.6547 182.905L75.6485 182.886ZM159.579 157.929C163.448 150.559 166.054 143.253 167.117 134.54C168.379 125.608 167.792 117.82 165.479 109.269C161.941 97.1873 154.71 87.393 143.628 80.9551C137.546 77.4486 131.121 75.6422 124.152 75.7672C119.095 76.011 113.857 76.8986 109.101 79.0299C104.344 81.1613 100.469 84.0928 95.7184 86.2241C91.1619 88.1305 85.3991 86.9304 82.0489 83.0802C79.8175 80.655 78.2112 77.9861 77.4299 74.8547C70.192 47.3155 92.3182 24.2828 116.201 15.7385C117.664 15.4572 118.907 14.9759 120.358 14.2696C126.802 12.057 133.302 11.1132 140.246 10.5632C141.721 10.4944 143.172 10.4569 144.603 10.4507C138.577 7.44421 132.208 5.03156 125.564 3.28146C122.764 3.84399 119.97 4.52528 117.176 5.34408C90.2994 13.1883 67.8105 33.0708 63.2915 62.0164C60.2288 81.8114 68.0293 103.406 87.568 109.857C88.6306 110.019 89.493 110.401 90.5618 110.557C92.912 111.076 95.2185 110.757 97.5499 110.857C101.544 110.451 105.275 109.007 108.326 106.538C109.951 105.194 111.357 103.644 112.319 101.7C115.626 95.8372 121.589 92.3808 128.133 92.2745C133.833 92.212 139.015 94.4997 143.19 97.8874C145.622 100.094 147.628 102.319 149.659 104.969C150.341 105.994 150.803 106.813 151.485 107.838C161.273 126.802 155.422 150.109 142.021 165.754C124.026 186.899 96.1685 196.269 67.7043 192.993C65.3229 192.725 62.9727 192.375 60.6538 191.956C72.7358 197.131 86.0429 200 100.019 200C100.831 200 101.638 199.987 102.444 199.969C108.482 198.569 114.382 196.556 120.132 193.843C136.671 186.287 150.672 174.417 159.598 157.935L159.579 157.929Z" fill="#1D2529"/>
<path d="M269.881 30.6362V82.9999H257.225V30.6362H269.881Z" fill="#1D2529"/>
<path d="M277.826 82.9999V43.7271H289.716V50.9374H290.15C290.968 48.551 292.349 46.6675 294.292 45.2868C296.236 43.9061 298.554 43.2158 301.247 43.2158C303.974 43.2158 306.309 43.9146 308.253 45.3124C310.196 46.7101 311.432 48.5851 311.96 50.9374H312.369C313.102 48.6021 314.534 46.7357 316.664 45.3379C318.795 43.9232 321.309 43.2158 324.207 43.2158C327.923 43.2158 330.94 44.409 333.258 46.7953C335.576 49.1646 336.736 52.4203 336.736 56.5624V82.9999H324.233V59.426C324.233 57.4658 323.73 55.9743 322.724 54.9516C321.718 53.9118 320.414 53.3919 318.812 53.3919C317.091 53.3919 315.736 53.9544 314.747 55.0794C313.775 56.1874 313.289 57.6788 313.289 59.5538V82.9999H301.272V59.2982C301.272 57.4743 300.778 56.034 299.789 54.9771C298.801 53.9203 297.497 53.3919 295.878 53.3919C294.787 53.3919 293.824 53.6561 292.988 54.1845C292.153 54.6959 291.497 55.4288 291.02 56.3834C290.559 57.3379 290.329 58.4629 290.329 59.7584V82.9999H277.826Z" fill="#1D2529"/>
<path d="M344.483 97.7271V43.7271H356.858V50.4516H357.241C357.753 49.2584 358.477 48.1078 359.414 46.9999C360.369 45.8919 361.579 44.9885 363.045 44.2896C364.528 43.5737 366.301 43.2158 368.363 43.2158C371.091 43.2158 373.639 43.9317 376.008 45.3635C378.395 46.7953 380.321 49.0027 381.787 51.9857C383.253 54.9686 383.986 58.7698 383.986 63.3891C383.986 67.8379 383.278 71.5624 381.863 74.5624C380.466 77.5624 378.574 79.8124 376.187 81.3124C373.818 82.8124 371.184 83.5624 368.287 83.5624C366.309 83.5624 364.596 83.2385 363.147 82.5908C361.699 81.9431 360.48 81.0908 359.491 80.034C358.52 78.9771 357.77 77.8436 357.241 76.6334H356.986V97.7271H344.483ZM356.73 63.3635C356.73 65.4771 357.011 67.318 357.574 68.8862C358.153 70.4544 358.98 71.6732 360.054 72.5425C361.145 73.3948 362.449 73.8209 363.966 73.8209C365.5 73.8209 366.804 73.3948 367.878 72.5425C368.951 71.6732 369.761 70.4544 370.307 68.8862C370.869 67.318 371.15 65.4771 371.15 63.3635C371.15 61.2499 370.869 59.4175 370.307 57.8663C369.761 56.3152 368.951 55.1135 367.878 54.2612C366.821 53.409 365.517 52.9828 363.966 52.9828C362.432 52.9828 361.128 53.4004 360.054 54.2357C358.98 55.0709 358.153 56.2641 357.574 57.8152C357.011 59.3663 356.73 61.2158 356.73 63.3635Z" fill="#1D2529"/>
<path d="M401.608 83.6646C399.103 83.6646 396.878 83.247 394.935 82.4118C393.009 81.5595 391.483 80.2811 390.358 78.5766C389.25 76.855 388.696 74.6987 388.696 72.1078C388.696 69.926 389.08 68.0851 389.847 66.5851C390.614 65.0851 391.671 63.8663 393.017 62.9288C394.364 61.9913 395.915 61.284 397.671 60.8067C399.427 60.3124 401.302 59.98 403.296 59.8095C405.529 59.605 407.327 59.3919 408.691 59.1703C410.054 58.9317 411.043 58.5993 411.657 58.1732C412.287 57.73 412.603 57.1078 412.603 56.3067V56.1788C412.603 54.8663 412.151 53.8521 411.248 53.1362C410.344 52.4203 409.125 52.0624 407.591 52.0624C405.938 52.0624 404.608 52.4203 403.603 53.1362C402.597 53.8521 401.958 54.8408 401.685 56.1021L390.154 55.693C390.495 53.3067 391.373 51.176 392.787 49.301C394.219 47.409 396.179 45.926 398.668 44.8521C401.174 43.7612 404.182 43.2158 407.694 43.2158C410.199 43.2158 412.509 43.5141 414.623 44.1107C416.736 44.6902 418.577 45.5425 420.145 46.6675C421.713 47.7754 422.924 49.1391 423.776 50.7584C424.645 52.3777 425.08 54.2271 425.08 56.3067V82.9999H413.319V77.5283H413.012C412.313 78.8578 411.418 79.9828 410.327 80.9033C409.253 81.8237 407.983 82.5141 406.517 82.9743C405.069 83.4345 403.432 83.6646 401.608 83.6646ZM405.469 75.4828C406.816 75.4828 408.026 75.2101 409.1 74.6646C410.191 74.1192 411.06 73.3692 411.708 72.4146C412.356 71.4431 412.679 70.3181 412.679 69.0396V65.3067C412.321 65.4942 411.887 65.6646 411.375 65.818C410.881 65.9715 410.336 66.1163 409.739 66.2527C409.142 66.3891 408.529 66.5084 407.898 66.6107C407.267 66.7129 406.662 66.8067 406.083 66.8919C404.907 67.0794 403.901 67.3692 403.066 67.7612C402.248 68.1533 401.617 68.6646 401.174 69.2953C400.748 69.909 400.535 70.6419 400.535 71.4942C400.535 72.7896 400.995 73.7783 401.915 74.4601C402.853 75.1419 404.037 75.4828 405.469 75.4828Z" fill="#1D2529"/>
<path d="M451.057 83.7413C446.915 83.7413 443.361 82.8891 440.395 81.1845C437.446 79.48 435.179 77.1107 433.594 74.0766C432.009 71.0254 431.216 67.497 431.216 63.4913C431.216 59.4686 432.009 55.9402 433.594 52.9061C435.196 49.855 437.472 47.4771 440.421 45.7726C443.387 44.068 446.924 43.2158 451.032 43.2158C454.662 43.2158 457.824 43.872 460.517 45.1845C463.228 46.497 465.341 48.355 466.858 50.7584C468.392 53.1448 469.202 55.9487 469.287 59.1703H457.603C457.364 57.159 456.682 55.5823 455.557 54.4402C454.449 53.2982 453 52.7271 451.211 52.7271C449.762 52.7271 448.492 53.1362 447.401 53.9544C446.31 54.7555 445.458 55.9487 444.844 57.534C444.248 59.1021 443.949 61.0453 443.949 63.3635C443.949 65.6817 444.248 67.6419 444.844 69.2442C445.458 70.8294 446.31 72.0311 447.401 72.8493C448.492 73.6504 449.762 74.051 451.211 74.051C452.37 74.051 453.392 73.8038 454.279 73.3095C455.182 72.8152 455.924 72.0908 456.503 71.1362C457.083 70.1646 457.449 68.9885 457.603 67.6078H469.287C469.168 70.8465 468.358 73.676 466.858 76.0965C465.375 78.5169 463.287 80.4004 460.594 81.747C457.918 83.0766 454.739 83.7413 451.057 83.7413Z" fill="#1D2529"/>
<path d="M497.853 43.7271V52.9317H473.078V43.7271H497.853ZM478.268 34.318H490.771V70.6504C490.771 71.4175 490.89 72.0396 491.129 72.5169C491.385 72.9771 491.751 73.3095 492.228 73.5141C492.706 73.7016 493.277 73.7953 493.941 73.7953C494.419 73.7953 494.922 73.7527 495.45 73.6675C495.995 73.5652 496.405 73.48 496.677 73.4118L498.569 82.4374C497.973 82.6078 497.129 82.8209 496.038 83.0766C494.964 83.3323 493.677 83.4942 492.177 83.5624C489.245 83.6987 486.731 83.3578 484.635 82.5396C482.555 81.7044 480.961 80.409 479.853 78.6533C478.762 76.8976 478.234 74.6902 478.268 72.0311V34.318Z" fill="#1D2529"/>
<path d="M288.482 133.335C288.312 131.46 287.553 130.003 286.206 128.963C284.877 127.906 282.976 127.378 280.505 127.378C278.868 127.378 277.505 127.591 276.414 128.017C275.323 128.443 274.505 129.031 273.959 129.781C273.414 130.514 273.133 131.358 273.115 132.312C273.081 133.096 273.235 133.787 273.576 134.383C273.934 134.98 274.445 135.508 275.11 135.969C275.792 136.412 276.61 136.804 277.564 137.145C278.519 137.486 279.593 137.784 280.786 138.04L285.286 139.062C287.877 139.625 290.161 140.375 292.138 141.312C294.133 142.25 295.803 143.366 297.15 144.662C298.513 145.957 299.544 147.449 300.243 149.136C300.942 150.824 301.3 152.716 301.317 154.812C301.3 158.119 300.465 160.957 298.812 163.327C297.158 165.696 294.78 167.511 291.678 168.773C288.593 170.034 284.868 170.665 280.505 170.665C276.124 170.665 272.306 170.008 269.05 168.696C265.794 167.383 263.263 165.389 261.456 162.713C259.65 160.037 258.721 156.653 258.669 152.562H270.789C270.891 154.25 271.343 155.656 272.144 156.781C272.945 157.906 274.044 158.758 275.442 159.338C276.857 159.917 278.493 160.207 280.351 160.207C282.056 160.207 283.505 159.977 284.698 159.517C285.908 159.057 286.837 158.417 287.485 157.599C288.133 156.781 288.465 155.844 288.482 154.787C288.465 153.798 288.158 152.954 287.562 152.256C286.965 151.54 286.044 150.926 284.8 150.415C283.573 149.886 282.005 149.4 280.096 148.957L274.624 147.679C270.09 146.639 266.519 144.96 263.911 142.642C261.303 140.307 260.008 137.153 260.025 133.182C260.008 129.943 260.877 127.105 262.633 124.667C264.388 122.23 266.817 120.329 269.919 118.966C273.022 117.602 276.559 116.92 280.53 116.92C284.587 116.92 288.107 117.611 291.09 118.991C294.09 120.355 296.417 122.273 298.07 124.744C299.723 127.216 300.567 130.079 300.601 133.335H288.482Z" fill="#1D2529"/>
<path d="M329.877 130.727V139.932H305.101V130.727H329.877ZM310.292 121.318H322.794V157.65C322.794 158.417 322.914 159.04 323.152 159.517C323.408 159.977 323.775 160.31 324.252 160.514C324.729 160.702 325.3 160.795 325.965 160.795C326.442 160.795 326.945 160.753 327.473 160.667C328.019 160.565 328.428 160.48 328.701 160.412L330.593 169.437C329.996 169.608 329.152 169.821 328.062 170.077C326.988 170.332 325.701 170.494 324.201 170.562C321.269 170.699 318.755 170.358 316.658 169.54C314.579 168.704 312.985 167.409 311.877 165.653C310.786 163.898 310.258 161.69 310.292 159.031V121.318Z" fill="#1D2529"/>
<path d="M336.256 170V130.727H348.401V137.886H348.81C349.526 135.295 350.694 133.369 352.313 132.108C353.932 130.829 355.816 130.19 357.963 130.19C358.543 130.19 359.14 130.233 359.753 130.318C360.367 130.386 360.938 130.497 361.466 130.65V141.517C360.87 141.312 360.086 141.15 359.114 141.031C358.16 140.912 357.307 140.852 356.557 140.852C355.074 140.852 353.736 141.185 352.543 141.849C351.367 142.497 350.438 143.409 349.756 144.585C349.091 145.744 348.759 147.108 348.759 148.676V170H336.256Z" fill="#1D2529"/>
<path d="M382.88 170.741C378.772 170.741 375.226 169.932 372.243 168.312C369.277 166.676 366.993 164.349 365.391 161.332C363.806 158.298 363.013 154.693 363.013 150.517C363.013 146.46 363.814 142.915 365.417 139.881C367.019 136.829 369.277 134.46 372.192 132.773C375.107 131.068 378.542 130.216 382.496 130.216C385.292 130.216 387.848 130.65 390.167 131.52C392.485 132.389 394.488 133.676 396.175 135.381C397.863 137.085 399.175 139.19 400.113 141.696C401.05 144.185 401.519 147.04 401.519 150.261V153.381H367.385V146.119H389.885C389.868 144.79 389.553 143.605 388.939 142.565C388.326 141.525 387.482 140.716 386.408 140.136C385.351 139.54 384.133 139.241 382.752 139.241C381.354 139.241 380.101 139.557 378.993 140.187C377.885 140.801 377.008 141.645 376.36 142.719C375.712 143.775 375.371 144.977 375.337 146.324V153.713C375.337 155.315 375.652 156.721 376.283 157.932C376.914 159.125 377.809 160.054 378.968 160.719C380.127 161.383 381.508 161.716 383.11 161.716C384.218 161.716 385.223 161.562 386.127 161.256C387.03 160.949 387.806 160.497 388.454 159.9C389.101 159.304 389.587 158.571 389.911 157.702L401.391 158.034C400.914 160.608 399.865 162.849 398.246 164.758C396.644 166.65 394.539 168.125 391.931 169.182C389.323 170.221 386.306 170.741 382.88 170.741Z" fill="#1D2529"/>
<path d="M418.976 170.665C416.47 170.665 414.245 170.247 412.302 169.412C410.376 168.56 408.851 167.281 407.726 165.577C406.618 163.855 406.064 161.699 406.064 159.108C406.064 156.926 406.447 155.085 407.214 153.585C407.981 152.085 409.038 150.866 410.385 149.929C411.731 148.991 413.282 148.284 415.038 147.807C416.794 147.312 418.669 146.98 420.663 146.81C422.896 146.605 424.694 146.392 426.058 146.17C427.422 145.932 428.41 145.599 429.024 145.173C429.655 144.73 429.97 144.108 429.97 143.307V143.179C429.97 141.866 429.518 140.852 428.615 140.136C427.711 139.42 426.493 139.062 424.959 139.062C423.305 139.062 421.976 139.42 420.97 140.136C419.964 140.852 419.325 141.841 419.052 143.102L407.521 142.693C407.862 140.307 408.74 138.176 410.155 136.301C411.586 134.409 413.547 132.926 416.035 131.852C418.541 130.761 421.549 130.216 425.061 130.216C427.566 130.216 429.876 130.514 431.99 131.111C434.103 131.69 435.944 132.542 437.512 133.667C439.081 134.775 440.291 136.139 441.143 137.758C442.012 139.378 442.447 141.227 442.447 143.307V170H430.686V164.528H430.379C429.68 165.858 428.785 166.983 427.694 167.903C426.62 168.824 425.351 169.514 423.885 169.974C422.436 170.435 420.799 170.665 418.976 170.665ZM422.836 162.483C424.183 162.483 425.393 162.21 426.467 161.665C427.558 161.119 428.427 160.369 429.075 159.415C429.723 158.443 430.047 157.318 430.047 156.04V152.307C429.689 152.494 429.254 152.665 428.743 152.818C428.248 152.971 427.703 153.116 427.106 153.253C426.51 153.389 425.896 153.508 425.265 153.611C424.635 153.713 424.03 153.807 423.45 153.892C422.274 154.079 421.268 154.369 420.433 154.761C419.615 155.153 418.984 155.665 418.541 156.295C418.115 156.909 417.902 157.642 417.902 158.494C417.902 159.79 418.362 160.778 419.282 161.46C420.22 162.142 421.405 162.483 422.836 162.483Z" fill="#1D2529"/>
<path d="M450.092 170V130.727H461.981V137.937H462.416C463.234 135.551 464.615 133.667 466.558 132.287C468.501 130.906 470.819 130.216 473.512 130.216C476.24 130.216 478.575 130.915 480.518 132.312C482.461 133.71 483.697 135.585 484.226 137.937H484.635C485.368 135.602 486.799 133.736 488.93 132.338C491.061 130.923 493.575 130.216 496.473 130.216C500.189 130.216 503.206 131.409 505.524 133.795C507.842 136.165 509.001 139.42 509.001 143.562V170H496.498V146.426C496.498 144.466 495.995 142.974 494.99 141.952C493.984 140.912 492.68 140.392 491.078 140.392C489.356 140.392 488.001 140.954 487.012 142.079C486.041 143.187 485.555 144.679 485.555 146.554V170H473.538V146.298C473.538 144.474 473.044 143.034 472.055 141.977C471.066 140.92 469.762 140.392 468.143 140.392C467.052 140.392 466.089 140.656 465.254 141.185C464.419 141.696 463.762 142.429 463.285 143.383C462.825 144.338 462.595 145.463 462.595 146.758V170H450.092Z" fill="#1D2529"/>
</svg>
